<?xml version="1.0" encoding="UTF-8" standalone="no"?>
<!-- Created with Inkscape (http://www.inkscape.org/) -->

<svg
   xmlns:dc="http://purl.org/dc/elements/1.1/"
   xmlns:cc="http://creativecommons.org/ns#"
   xmlns:rdf="http://www.w3.org/1999/02/22-rdf-syntax-ns#"
   xmlns:svg="http://www.w3.org/2000/svg"
   xmlns="http://www.w3.org/2000/svg"
   xmlns:sodipodi="http://sodipodi.sourceforge.net/DTD/sodipodi-0.dtd"
   xmlns:inkscape="http://www.inkscape.org/namespaces/inkscape"
   width="577.00684"
   height="186.00784"
   id="svg2"
   version="1.1"
   inkscape:version="0.48.4 r9939"
   sodipodi:docname="dessin.svg">
  <defs
     id="defs4" />
  <sodipodi:namedview
     id="base"
     pagecolor="#ffffff"
     bordercolor="#666666"
     borderopacity="1.0"
     inkscape:pageopacity="0.0"
     inkscape:pageshadow="2"
     inkscape:zoom="1.4"
     inkscape:cx="253.09897"
     inkscape:cy="7.9879778"
     inkscape:document-units="px"
     inkscape:current-layer="layer1"
     showgrid="false"
     inkscape:window-width="1680"
     inkscape:window-height="1013"
     inkscape:window-x="0"
     inkscape:window-y="0"
     inkscape:window-maximized="1"
     fit-margin-top="0"
     fit-margin-left="0"
     fit-margin-right="0"
     fit-margin-bottom="0" />
  <metadata
     id="metadata7">
    <rdf:RDF>
      <cc:Work
         rdf:about="">
        <dc:format>image/svg+xml</dc:format>
        <dc:type
           rdf:resource="http://purl.org/dc/dcmitype/StillImage" />
      </cc:Work>
    </rdf:RDF>
  </metadata>
  <g
     inkscape:label="Calque 1"
     inkscape:groupmode="layer"
     id="layer1"
     transform="translate(-84.742798,-728.74085)">
    <path
       style="fill:#000000"
       d="m 306.49965,906.74869 -20,0 0,-164 10,0 10,0 0,-3.84123 0,-3.84124 -25.25,-0.66707 c -13.8875,-0.36689 -35.6,-1.32573 -48.25,-2.13076 -12.65,-0.80502 -26.0375,-1.47628 -29.75,-1.49169 l -6.75,-0.028 -0.76637,38 c -0.4215,0 -2.25213,-2.48403 -4.06806,-5.52007 -4.51661,-7.55126 -15.36103,-18.1989 -23.18268,-22.76201 -15.9463,-9.30299 -37.6226,-11.56618 -54.93134,-5.73529 -20.001803,6.73812 -31.424583,24.98116 -28.296333,45.19138 2.38828,15.4296 12.54802,29.07772 25.155393,33.79256 17.91799,6.70088 37.7951,3.51356 49.13714,-7.8792 11.21018,-11.26031 13.00051,-19.15222 10.65232,-46.95637 -0.30172,-3.57261 2.61758,-5.0022 6.03921,-2.95744 4.10037,2.45037 10.9097,12.95015 13.19334,20.34371 3.54575,11.4798 4.06738,21.3172 4.06738,76.7065 l 0,53.77623 -28,0 c 0,2.66667 0,5.33333 0,8 l 141,0 z m 167.50143,-178 c 10e-4,-0.99184 -185.50101,92.50802 -185.48542,92.99748 0.0266,0.83328 185.23275,93.18116 185.23399,92.27062 z m 187.54234,0.1667 c -2.92931,1.02113 -185.03629,92.3869 -184.99916,92.81682 0.0715,0.82727 184.37682,92.62058 185.20539,92.24156 z"
       id="path3023"
       inkscape:connector-curvature="0"
       sodipodi:nodetypes="cccccccsssccsssssssssscccccscsscccc" />
  </g>
</svg>
